# xmcd
#
# Track frame offsets: 
#        150
#        14994
#        28760
#        37844
#        51389
#        65115
#        75894
#        90252
#        105136
#        118647
#        130695
#        143578
#        155351
#        166656
#        178893
#        191679
#        204707
#        217277
#        230191
#        241633
#
# Disc length: 3379 seconds
#
# Revision: 0
# Processed by: cddbd v1.5.2PL0 Copyright (c) Steve Scherf et al.
# Submitted via: ExactAudioCopyFreeDBPlugin 1.0
#
DISCID=0e0d3114
DTITLE=Bobby "Blue" Bland  - It's My Life, Baby: The Singles As and Bs 1
DTITLE=951-1960 CD 1
DYEAR=2015
DGENRE=Blues
TTITLE0=Love You Till the Day I Die
TTITLE1=Crying All Night Long
TTITLE2=Dry Up Baby
TTITLE3=Love My Baby
TTITLE4=Drifting from Town to Town
TTITLE5=Good Lovin'
TTITLE6=I.O.U. Blues
TTITLE7=Lovin' Blues
TTITLE8=No Blow No Show
TTITLE9=Army Blues
TTITLE10=Wise Man Blues
TTITLE11=Lost Lover Blues
TTITLE12=Honey Bee
TTITLE13=It's My Life Baby
TTITLE14=Time Out You
TTITLE15=You or None
TTITLE16=I Woke Up Screaming
TTITLE17=A Million Miles from Nowhere
TTITLE18=You Got Bad Intentions
TTITLE19=I Can't Put You Down
EXTD=
EXTT0=
EXTT1=
EXTT2=
EXTT3=
EXTT4=
EXTT5=
EXTT6=
EXTT7=
EXTT8=
EXTT9=
EXTT10=
EXTT11=
EXTT12=
EXTT13=
EXTT14=
EXTT15=
EXTT16=
EXTT17=
EXTT18=
EXTT19=
PLAYORDER=
